HIERARCHY
ROOT Hips
{
	OFFSET 0.00000 0.00000 0.00000
	CHANNELS 6 Xposition Yposition Zposition Zrotation Yrotation Xrotation 
	JOINT LHipJoint
	{
		OFFSET 0 0 0
		CHANNELS 3 Zrotation Yrotation Xrotation
		JOINT LeftUpLeg
		{
			OFFSET 1.75344 -1.53157 0.77399
			CHANNELS 3 Zrotation Yrotation Xrotation
			JOINT LeftLeg
			{
				OFFSET 2.25415 -6.19323 0.00000
				CHANNELS 3 Zrotation Yrotation Xrotation
				JOINT LeftFoot
				{
					OFFSET 2.30342 -6.32861 0.00000
					CHANNELS 3 Zrotation Yrotation Xrotation
					JOINT LeftToeBase
					{
						OFFSET 0.10958 -0.30108 1.49206
						CHANNELS 3 Zrotation Yrotation Xrotation
						End Site
						{
							OFFSET 0.00000 -0.00000 0.77783
						}
					}
				}
			}
		}
	}
	JOINT RHipJoint
	{
		OFFSET 0 0 0
		CHANNELS 3 Zrotation Yrotation Xrotation
		JOINT RightUpLeg
		{
			OFFSET -1.81912 -1.53156 0.77399
			CHANNELS 3 Zrotation Yrotation Xrotation
			JOINT RightLeg
			{
				OFFSET -2.22882 -6.12365 0.00000
				CHANNELS 3 Zrotation Yrotation Xrotation
				JOINT RightFoot
				{
					OFFSET -2.21943 -6.09785 0.00000
					CHANNELS 3 Zrotation Yrotation Xrotation
					JOINT RightToeBase
					{
						OFFSET -0.18931 -0.52012 1.59379
						CHANNELS 3 Zrotation Yrotation Xrotation
						End Site
						{
							OFFSET -0.00000 -0.00000 0.84686
						}
					}
				}
			}
		}
	}
	JOINT LowerBack
	{
		OFFSET 0 0 0
		CHANNELS 3 Zrotation Yrotation Xrotation
		JOINT Spine
		{
			OFFSET -0.00200 1.66634 -0.14248
			CHANNELS 3 Zrotation Yrotation Xrotation
			JOINT Spine1
			{
				OFFSET -0.00875 1.64542 0.09514
				CHANNELS 3 Zrotation Yrotation Xrotation
				JOINT Neck
				{
					OFFSET 0 0 0
					CHANNELS 3 Zrotation Yrotation Xrotation
					JOINT Neck1
					{
						OFFSET 0.02257 1.59605 0.00839
						CHANNELS 3 Zrotation Yrotation Xrotation
						JOINT Head
						{
							OFFSET -0.10214 1.57530 -0.23335
							CHANNELS 3 Zrotation Yrotation Xrotation
							End Site
							{
								OFFSET -0.03588 1.60717 -0.08062
							}
						}
					}
				}
				JOINT LeftShoulder
				{
					OFFSET 0 0 0
					CHANNELS 3 Zrotation Yrotation Xrotation
					JOINT LeftArm
					{
						OFFSET 2.54983 1.10186 0.40078
						CHANNELS 3 Zrotation Yrotation Xrotation
						JOINT LeftForeArm
						{
							OFFSET 4.28840 -0.00000 0.00000
							CHANNELS 3 Zrotation Yrotation Xrotation
							JOINT LeftHand
							{
								OFFSET 3.06552 -0.00000 -0.00000
								CHANNELS 3 Zrotation Yrotation Xrotation
								JOINT LeftFingerBase
								{
									OFFSET 0 0 0
									CHANNELS 3 Zrotation Yrotation Xrotation
									JOINT LeftHandIndex1
									{
										OFFSET 0.75304 -0.00000 0.00000
										CHANNELS 3 Zrotation Yrotation Xrotation
										End Site
										{
											OFFSET 0.60712 -0.00000 0.00000
										}
									}
								}
								JOINT LThumb
								{
									OFFSET 0 0 0
									CHANNELS 3 Zrotation Yrotation Xrotation
									End Site
									{
										OFFSET 0.61639 -0.00000 0.61639
									}
								}
							}
						}
					}
				}
				JOINT RightShoulder
				{
					OFFSET 0 0 0
					CHANNELS 3 Zrotation Yrotation Xrotation
					JOINT RightArm
					{
						OFFSET -2.60909 1.35448 0.21802
						CHANNELS 3 Zrotation Yrotation Xrotation
						JOINT RightForeArm
						{
							OFFSET -4.52172 -0.00000 -0.00000
							CHANNELS 3 Zrotation Yrotation Xrotation
							JOINT RightHand
							{
								OFFSET -2.89140 -0.00000 0.00000
								CHANNELS 3 Zrotation Yrotation Xrotation
								JOINT RightFingerBase
								{
									OFFSET 0 0 0
									CHANNELS 3 Zrotation Yrotation Xrotation
									JOINT RightHandIndex1
									{
										OFFSET -0.68054 -0.00000 0.00000
										CHANNELS 3 Zrotation Yrotation Xrotation
										End Site
										{
											OFFSET -0.54867 -0.00000 0.00000
										}
									}
								}
								JOINT RThumb
								{
									OFFSET 0 0 0
									CHANNELS 3 Zrotation Yrotation Xrotation
									End Site
									{
										OFFSET -0.55705 -0.00000 0.55705
									}
								}
							}
						}
					}
				}
			}
		}
	}
}
MOTION
Frames: 6
Frame Time: .0083333
8.6133 13.9376 34.3083 -179.0570 -2.9532 -166.9840 0.0000 0.0000 0.0000 -12.8304 -11.8559 -49.6117 10.5746 17.7205 61.3921 2.4317 -3.4783 -28.6588 3.4926 -11.4528 -33.8225 0.0000 0.0000 0.0000 23.3955 16.0491 -42.4320 -10.3545 -17.6044 60.6668 -1.7758 -9.0057 -29.7898 -0.0970 2.0090 -5.5304 4.5455 3.1737 19.6979 1.1538 5.4004 -2.0231 -2.9082 2.1745 -13.0656 -8.1314 -4.8288 -3.2600 2.2275 -7.3166 -13.5073 2.2964 -3.7576 -3.4738 -0.0000 -0.0000 0.0000 -84.1747 25.7430 16.1725 16.0274 -25.5578 -3.6578 -0.0000 -0.0000 36.2884 -15.2562 -33.1446 8.4818 -7.1250 0.0000 -0.0000 -25.6347 -1.4093 29.3410 -0.0000 -0.0000 0.0000 76.7275 -5.7205 29.0041 -12.4713 20.5077 -2.2647 0.0000 0.0000 47.4408 -1.0380 -54.9359 0.8497 7.1250 -0.0000 -0.0000 77.8769 -72.1894 -59.0223
8.6334 13.8762 34.2905 -178.5980 -2.6321 -166.9430 0.0000 0.0000 0.0000 -11.9283 -11.8179 -50.9172 11.4290 18.1387 64.1671 2.5797 -3.0993 -29.6336 3.5709 -11.5664 -34.2148 0.0000 0.0000 0.0000 23.7234 17.0330 -43.4418 -11.2046 -18.0338 63.4443 -1.8648 -9.3321 -30.5762 -0.1099 2.1373 -5.8852 5.0199 3.3642 20.0733 0.8679 5.7625 -2.0629 -3.6290 2.2854 -13.2261 -7.4402 -4.9850 -2.5498 2.4921 -7.6891 -14.9068 2.3574 -3.9916 -4.0997 0.0000 0.0000 0.0000 -83.2753 25.3483 17.4938 16.1655 -25.7446 -3.7176 -0.0000 -0.0000 35.9872 -15.8470 -31.8565 8.5206 -7.1250 0.0000 -0.0000 -26.0259 -0.2348 29.3427 0.0000 0.0000 0.0000 77.8366 -5.2143 26.5651 -13.0946 21.4257 -2.4877 0.0000 0.0000 47.4321 -2.7262 -56.4649 2.2730 7.1250 -0.0000 -0.0000 82.1577 -73.0224 -64.2162
8.6455 13.7544 34.2680 -178.2340 -2.3550 -166.8900 0.0000 0.0000 0.0000 -11.1724 -11.8777 -52.1395 12.2100 18.4780 66.6530 2.7876 -2.9920 -30.8765 3.4426 -11.3792 -33.5696 0.0000 0.0000 0.0000 23.9215 17.9946 -44.5064 -12.0101 -18.3949 66.0209 -1.8711 -9.9008 -31.0015 -0.1336 2.3558 -6.4900 5.2868 3.4418 20.4738 0.8019 5.9515 -2.1187 -3.9431 2.3332 -13.4745 -7.4452 -5.0210 -1.9901 3.0160 -7.8192 -16.3492 2.3992 -4.1015 -4.1958 0.0000 0.0000 0.0000 -82.9660 24.9591 18.6644 16.2918 -25.9147 -3.7726 -0.0000 -0.0000 35.9038 -15.9664 -31.9359 8.6061 -7.1250 0.0000 -0.0000 -26.0775 -0.3132 29.4544 0.0000 0.0000 0.0000 78.3206 -4.6565 25.1585 -13.7026 22.3079 -2.7142 0.0000 0.0000 46.5205 -6.5839 -57.1407 5.5377 7.1250 -0.0000 -0.0000 83.7422 -74.4291 -67.4323
8.6446 13.5619 34.2404 -178.0900 -2.2527 -166.8000 0.0000 0.0000 0.0000 -10.6310 -12.2946 -53.3852 12.9173 18.7521 68.8684 2.9797 -3.1677 -31.9281 3.1903 -10.9969 -32.2693 0.0000 0.0000 0.0000 23.8024 18.8585 -45.8586 -12.8145 -18.7142 68.5484 -1.9172 -10.0025 -31.3558 -0.0895 1.9290 -5.3095 5.4505 3.4178 20.8232 0.7738 5.9864 -2.2056 -4.1104 2.3172 -13.7584 -8.0978 -4.9399 -1.9247 3.8143 -7.6596 -16.7339 2.7581 -4.0339 -4.2728 0.0000 -0.0000 0.0000 -82.7988 24.5439 20.0312 16.4380 -26.1110 -3.8367 -0.0000 -0.0000 35.6167 -17.0206 -32.7234 9.3965 -7.1250 0.0000 -0.0000 -26.5210 -1.0894 30.4726 0.0000 -0.0000 0.0000 78.5176 -4.0877 24.1688 -14.2273 23.0587 -2.9165 0.0000 0.0000 44.8860 -12.1439 -56.9415 10.2233 7.1250 -0.0000 -0.0000 82.7355 -76.3968 -68.6458
8.6514 13.4874 34.2214 -177.8570 -2.2978 -166.7300 0.0000 0.0000 0.0000 -10.1225 -12.6545 -53.9889 13.4270 18.9310 70.4467 3.1679 -3.4463 -32.9052 3.0029 -10.6998 -31.2739 0.0000 0.0000 0.0000 23.9264 19.0656 -46.8139 -13.4582 -18.9414 70.5427 -1.9910 -9.7602 -31.6413 -0.0586 1.5615 -4.2953 5.1319 2.9668 21.4071 0.5696 5.2771 -1.8161 -3.9720 2.0075 -13.7147 -6.3427 -4.3203 -4.8985 3.4369 -6.7855 -15.7980 2.4184 -3.7360 -4.0298 0.0000 0.0000 0.0000 -82.3701 23.0732 20.8262 16.7751 -26.5603 -3.9862 -0.0000 -0.0000 34.1554 -18.3866 -32.1366 10.0271 -7.1250 0.0000 -0.0000 -27.2266 -0.6217 31.2825 0.0000 0.0000 0.0000 79.4050 -1.6940 24.4461 -14.5357 23.4953 -3.0384 0.0000 0.0000 42.9821 -16.0346 -56.3165 13.4496 7.1250 -0.0000 -0.0000 80.3338 -77.8049 -67.8221
8.6604 13.4313 34.2015 -177.5990 -2.2740 -166.6910 0.0000 0.0000 0.0000 -9.6223 -12.9214 -54.4165 13.8553 19.0696 71.7620 3.3163 -3.6414 -33.6623 2.6720 -10.1441 -29.4448 0.0000 0.0000 0.0000 24.0341 19.4811 -47.5314 -13.9908 -19.1112 72.1763 -2.0188 -9.7080 -31.7751 -0.0583 1.5587 -4.2875 5.4780 2.9667 21.6916 0.5008 5.3921 -1.9901 -4.3108 2.0114 -14.0372 -6.3511 -4.3484 -4.5474 3.5893 -6.8388 -16.0750 2.4989 -3.7668 -4.1885 -0.0000 0.0000 0.0000 -81.7436 22.5736 23.1346 16.9382 -26.7762 -4.0594 -0.0000 -0.0000 33.0897 -19.3803 -31.7233 10.4794 -7.1250 0.0000 -0.0000 -27.7380 -0.3068 31.8867 -0.0000 0.0000 0.0000 79.7537 -1.3695 24.4527 -14.9358 24.0566 -3.1997 0.0000 0.0000 39.8971 -18.8863 -55.5399 15.7525 7.1250 -0.0000 -0.0000 76.9936 -78.8524 -65.6937
